<?xml version="1.0" encoding="UTF-8"?><svg id="Layer_2" xmlns="http://www.w3.org/2000/svg" viewBox="0 0 93.6061 73.4049"><defs><style>.cls-1{fill:#fff;stroke-width:0px;}</style></defs><g id="Layer_2-2"><g id="Layer_1-2"><path class="cls-1" d="M38.8028,4.6006c0,4.8003-10.2007,8.6006-10.2007,17.001,0,11.8008,15.001,13.0005,15.001,29.4019,0,13.8008-10.001,22.4014-20.4014,22.4014-12.8008,0-23.2017-7.4004-23.2017-26.4019C0,21.4014,20.0016,0,33.4024,0c3,0,5.4004,2.2002,5.4004,4.6006ZM88.8058,4.6006c0,4.8003-10.2007,8.6006-10.2007,17.001,0,11.8008,15.001,13.0005,15.001,29.4019,0,13.8008-10.0005,22.4014-20.4014,22.4014-12.8008,0-23.2012-7.4004-23.2012-26.4019,0-25.6016,20.001-47.003,33.4019-47.003,3,0,5.4004,2.2002,5.4004,4.6006Z"/></g></g></svg>