<?xml version="1.0" encoding="UTF-8"?><svg id="Layer_2" xmlns="http://www.w3.org/2000/svg" viewBox="0 0 93.606 73.4048"><defs><style>.cls-1{stroke-width:0px;}</style></defs><g id="Layer_1-2"><path class="cls-1" d="M38.8027,4.6006c0,4.8003-10.2007,8.6006-10.2007,17.001,0,11.8008,15.001,13.0005,15.001,29.4019,0,13.8008-10.001,22.4014-20.4014,22.4014-12.8008,0-23.2017-7.4004-23.2017-26.4019C0,21.4014,20.0015,0,33.4023,0c3,0,5.4004,2.2002,5.4004,4.6006ZM88.8057,4.6006c0,4.8003-10.2007,8.6006-10.2007,17.001,0,11.8008,15.001,13.0005,15.001,29.4019,0,13.8008-10.0005,22.4014-20.4014,22.4014-12.8008,0-23.2012-7.4004-23.2012-26.4019C50.0034,21.4014,70.0044,0,83.4053,0c3,0,5.4004,2.2002,5.4004,4.6006Z"/></g></svg>